<svg width="24" height="24" viewBox="0 0 24 24" fill="none" xmlns="http://www.w3.org/2000/svg">
<path d="M14.8864 12C14.8864 13.578 13.5941 14.8571 12 14.8571C10.4059 14.8571 9.11363 13.578 9.11363 12C9.11363 10.422 10.4059 9.14286 12 9.14286C13.5941 9.14286 14.8864 10.422 14.8864 12Z" fill="white"/>
<path fill-rule="evenodd" clip-rule="evenodd" d="M12 24C18.1072 24 23.1597 19.5296 24 13.7143H16.8998C16.1866 15.7118 14.2621 17.1429 12 17.1429C9.73786 17.1429 7.81339 15.7118 7.10016 13.7143H0C0.840332 19.5296 5.89277 24 12 24ZM7.10016 10.2857H0C0.840332 4.47035 5.89277 0 12 0C18.1072 0 23.1597 4.47035 24 10.2857H16.8998C16.1866 8.28824 14.2621 6.85714 12 6.85714C9.73786 6.85714 7.81339 8.28824 7.10016 10.2857ZM14.8864 12C14.8864 13.578 13.5941 14.8571 12 14.8571C10.4059 14.8571 9.11363 13.578 9.11363 12C9.11363 10.422 10.4059 9.14286 12 9.14286C13.5941 9.14286 14.8864 10.422 14.8864 12Z" fill="white"/>
</svg>
