<svg width="22" height="22" viewBox="0 0 22 22" fill="none" xmlns="http://www.w3.org/2000/svg">
<path d="M8.142 20.5855C6.48803 20.0917 4.99009 19.178 3.794 17.9335C4.17884 17.4771 4.41874 16.9162 4.483 16.3226C4.54726 15.7291 4.43296 15.1298 4.15472 14.6016C3.87649 14.0734 3.44698 13.6402 2.92115 13.3575C2.39531 13.0747 1.79708 12.9553 1.203 13.0145C1.06766 12.3515 0.999648 11.6766 1 11C1 9.955 1.16 8.947 1.458 8H1.5C2.00988 8.00016 2.51139 7.87037 2.95717 7.62287C3.40295 7.37537 3.7783 7.01834 4.04777 6.58549C4.31724 6.15264 4.47194 5.65825 4.49726 5.149C4.52259 4.63975 4.4177 4.13245 4.1925 3.675C5.3648 2.58341 6.78253 1.78991 8.326 1.3615C8.57719 1.8547 8.95992 2.26879 9.43186 2.55797C9.90379 2.84715 10.4465 3.00013 11 3C11.5535 3.00013 12.0962 2.84715 12.5681 2.55797C13.0401 2.26879 13.4228 1.8547 13.674 1.3615C15.2175 1.78991 16.6352 2.58341 17.8075 3.675C17.5807 4.13565 17.4759 4.64682 17.5031 5.15957C17.5304 5.67233 17.6888 6.1695 17.9632 6.60351C18.2376 7.03752 18.6188 7.39383 19.0703 7.63834C19.5219 7.88285 20.0286 8.00738 20.542 8C20.8465 8.97085 21.0009 9.98251 21 11C21 11.69 20.93 12.364 20.797 13.0145C20.2029 12.9553 19.6047 13.0747 19.0789 13.3575C18.553 13.6402 18.1235 14.0734 17.8453 14.6016C17.567 15.1298 17.4527 15.7291 17.517 16.3226C17.5813 16.9162 17.8212 17.4771 18.206 17.9335C17.0099 19.178 15.512 20.0917 13.858 20.5855C13.6638 19.9801 13.2824 19.4521 12.7687 19.0775C12.2551 18.7028 11.6357 18.501 11 18.501C10.3643 18.501 9.74493 18.7028 9.23129 19.0775C8.71765 19.4521 8.33623 19.9801 8.142 20.5855Z" stroke="white" stroke-width="2" stroke-linejoin="round"/>
<path d="M11 14.5C11.4596 14.5 11.9148 14.4095 12.3394 14.2336C12.764 14.0577 13.1499 13.7999 13.4749 13.4749C13.7999 13.1499 14.0577 12.764 14.2336 12.3394C14.4095 11.9148 14.5 11.4596 14.5 11C14.5 10.5404 14.4095 10.0852 14.2336 9.66061C14.0577 9.23597 13.7999 8.85013 13.4749 8.52513C13.1499 8.20012 12.764 7.94231 12.3394 7.76642C11.9148 7.59053 11.4596 7.5 11 7.5C10.0717 7.5 9.1815 7.86875 8.52513 8.52513C7.86875 9.1815 7.5 10.0717 7.5 11C7.5 11.9283 7.86875 12.8185 8.52513 13.4749C9.1815 14.1313 10.0717 14.5 11 14.5Z" stroke="white" stroke-width="2" stroke-linejoin="round"/>
</svg>
